<?xml version="1.0" encoding="UTF-8"?>
<svg xmlns="http://www.w3.org/2000/svg" width="4096" height="4096" viewBox="0 0 4096 4096" fill="none" data-mesh="valve">
  <g stroke="#000" stroke-width="7" stroke-linecap="round" stroke-linejoin="round" opacity="0.9">
    <path d="M 1103.746 0.652 L 1102.261 4096.000" />
<path d="M 1103.746 0.652 L 1103.747 4095.306" />
<path d="M 1114.502 4090.407 L 1103.746 0.652" />
<path d="M 1123.697 0.000 L 1124.170 4084.918" />
<path d="M 1124.283 689.414 L 1124.983 714.288" />
<path d="M 1124.283 689.414 L 1125.096 689.414" />
<path d="M 1124.385 659.546 L 1125.096 689.414" />
<path d="M 1124.385 659.546 L 1125.198 659.546" />
<path d="M 1124.474 625.592 L 1125.198 659.546" />
<path d="M 1124.474 625.592 L 1125.287 625.592" />
<path d="M 1124.548 588.584 L 1125.287 625.592" />
<path d="M 1124.548 588.584 L 1125.360 588.583" />
<path d="M 1124.603 549.645 L 1125.360 588.583" />
<path d="M 1124.603 549.645 L 1125.415 549.645" />
<path d="M 1124.638 509.960 L 1125.415 549.645" />
<path d="M 1124.638 509.960 L 1125.451 509.959" />
<path d="M 1124.652 470.734 L 1125.451 509.959" />
<path d="M 1124.652 470.734 L 1125.465 470.733" />
<path d="M 1124.646 433.158 L 1125.465 470.733" />
<path d="M 1124.646 433.158 L 1125.458 433.157" />
<path d="M 1124.618 398.375 L 1125.458 433.157" />
<path d="M 1124.618 398.375 L 1125.430 398.375" />
<path d="M 1121.257 2386.294 L 1120.444 2386.281" />
<path d="M 1120.941 2351.483 L 1121.257 2386.294" />
<path d="M 1120.941 2351.483 L 1121.754 2351.495" />
<path d="M 1121.408 2313.874 L 1121.754 2351.495" />
<path d="M 1121.408 2313.874 L 1122.220 2313.885" />
<path d="M 1121.829 2274.596 L 1122.220 2313.885" />
<path d="M 1121.829 2274.596 L 1122.642 2274.607" />
<path d="M 1122.193 2234.844 L 1122.642 2274.607" />
<path d="M 1122.193 2234.844 L 1123.006 2234.855" />
<path d="M 1122.488 2195.826 L 1123.006 2234.855" />
<path d="M 1122.488 2195.826 L 1123.301 2195.836" />
<path d="M 1122.706 2158.726 L 1123.301 2195.836" />
<path d="M 1122.706 2158.726 L 1123.518 2158.736" />
<path d="M 1122.839 2124.673 L 1123.518 2158.736" />
<path d="M 1122.839 2124.673 L 1123.651 2124.682" />
<path d="M 1122.884 2094.700 L 1123.651 2124.682" />
<path d="M 1122.884 2094.700 L 1123.696 2094.709" />
<path d="M 1122.839 2069.719 L 1123.696 2094.709" />
<path d="M 1122.839 2069.719 L 1123.651 2069.728" />
<path d="M 1122.839 2069.719 L 1115.314 0.009" />
<path d="M 1125.430 398.375 L 1124.631 1.541" />
<path d="M 1124.170 12.909 L 1125.430 398.375" />
<path d="M 1125.430 398.375 L 1124.644 12.909" />
<path d="M 558.037 4096.000 L 179.704 169.079" />
<path d="M 148.159 3907.322 L 558.037 4096.000" />
<path d="M 89.646 3857.434 L 148.159 3907.322" />
<path d="M 41.946 3791.884 L 89.646 3857.434" />
<path d="M 10.813 3718.578 L 41.946 3791.884" />
<path d="M 0.000 3646.359 L 10.813 3718.578" />
<path d="M 2.730 410.823 L 0.000 3646.359" />
<path d="M 24.076 337.047 L 2.730 410.823" />
<path d="M 64.193 266.752 L 24.076 337.047" />
<path d="M 118.242 208.417 L 64.193 266.752" />
<path d="M 179.704 169.079 L 118.242 208.417" />
<path d="M 148.159 3907.322 L 179.704 169.079" />
<path d="M 41.946 3791.884 L 148.159 3907.322" />
<path d="M 0.000 3646.359 L 41.946 3791.884" />
<path d="M 24.076 337.047 L 0.000 3646.359" />
<path d="M 118.242 208.417 L 24.076 337.047" />
<path d="M 148.159 3907.322 L 118.242 208.417" />
<path d="M 0.000 3646.359 L 148.159 3907.322" />
<path d="M 118.242 208.417 L 0.000 3646.359" />
<path d="M 1115.116 2786.100 L 1120.444 2386.281" />
<path d="M 1114.975 2773.136 L 1115.116 2786.100" />
<path d="M 1120.444 2386.281 L 1114.975 2773.136" />
<path d="M 923.068 163.594 L 558.037 4084.918" />
<path d="M 984.355 202.931 L 923.068 163.594" />
<path d="M 1038.250 261.264 L 984.355 202.931" />
<path d="M 1078.252 331.558 L 1038.250 261.264" />
<path d="M 1099.536 405.334 L 1078.252 331.558" />
<path d="M 1102.260 3640.870 L 1099.536 405.334" />
<path d="M 1091.478 3713.089 L 1102.260 3640.870" />
<path d="M 1060.432 3786.392 L 1091.478 3713.089" />
<path d="M 1012.868 3851.939 L 1060.432 3786.392" />
<path d="M 954.521 3901.823 L 1012.868 3851.939" />
<path d="M 558.037 4084.918 L 954.521 3901.823" />
<path d="M 984.355 202.931 L 558.037 4084.918" />
<path d="M 1078.252 331.558 L 984.355 202.931" />
<path d="M 1102.260 3640.870 L 1078.252 331.558" />
<path d="M 1060.432 3786.392 L 1102.260 3640.870" />
<path d="M 954.521 3901.823 L 1060.432 3786.392" />
<path d="M 984.355 202.931 L 954.521 3901.823" />
<path d="M 1102.260 3640.870 L 984.355 202.931" />
<path d="M 954.521 3901.823 L 1102.260 3640.870" />
  </g>
  <g stroke="#fff" stroke-width="2.5" stroke-linecap="round" stroke-linejoin="round">
    <path d="M 1103.746 0.652 L 1102.261 4096.000" />
<path d="M 1103.746 0.652 L 1103.747 4095.306" />
<path d="M 1114.502 4090.407 L 1103.746 0.652" />
<path d="M 1123.697 0.000 L 1124.170 4084.918" />
<path d="M 1124.283 689.414 L 1124.983 714.288" />
<path d="M 1124.283 689.414 L 1125.096 689.414" />
<path d="M 1124.385 659.546 L 1125.096 689.414" />
<path d="M 1124.385 659.546 L 1125.198 659.546" />
<path d="M 1124.474 625.592 L 1125.198 659.546" />
<path d="M 1124.474 625.592 L 1125.287 625.592" />
<path d="M 1124.548 588.584 L 1125.287 625.592" />
<path d="M 1124.548 588.584 L 1125.360 588.583" />
<path d="M 1124.603 549.645 L 1125.360 588.583" />
<path d="M 1124.603 549.645 L 1125.415 549.645" />
<path d="M 1124.638 509.960 L 1125.415 549.645" />
<path d="M 1124.638 509.960 L 1125.451 509.959" />
<path d="M 1124.652 470.734 L 1125.451 509.959" />
<path d="M 1124.652 470.734 L 1125.465 470.733" />
<path d="M 1124.646 433.158 L 1125.465 470.733" />
<path d="M 1124.646 433.158 L 1125.458 433.157" />
<path d="M 1124.618 398.375 L 1125.458 433.157" />
<path d="M 1124.618 398.375 L 1125.430 398.375" />
<path d="M 1121.257 2386.294 L 1120.444 2386.281" />
<path d="M 1120.941 2351.483 L 1121.257 2386.294" />
<path d="M 1120.941 2351.483 L 1121.754 2351.495" />
<path d="M 1121.408 2313.874 L 1121.754 2351.495" />
<path d="M 1121.408 2313.874 L 1122.220 2313.885" />
<path d="M 1121.829 2274.596 L 1122.220 2313.885" />
<path d="M 1121.829 2274.596 L 1122.642 2274.607" />
<path d="M 1122.193 2234.844 L 1122.642 2274.607" />
<path d="M 1122.193 2234.844 L 1123.006 2234.855" />
<path d="M 1122.488 2195.826 L 1123.006 2234.855" />
<path d="M 1122.488 2195.826 L 1123.301 2195.836" />
<path d="M 1122.706 2158.726 L 1123.301 2195.836" />
<path d="M 1122.706 2158.726 L 1123.518 2158.736" />
<path d="M 1122.839 2124.673 L 1123.518 2158.736" />
<path d="M 1122.839 2124.673 L 1123.651 2124.682" />
<path d="M 1122.884 2094.700 L 1123.651 2124.682" />
<path d="M 1122.884 2094.700 L 1123.696 2094.709" />
<path d="M 1122.839 2069.719 L 1123.696 2094.709" />
<path d="M 1122.839 2069.719 L 1123.651 2069.728" />
<path d="M 1122.839 2069.719 L 1115.314 0.009" />
<path d="M 1125.430 398.375 L 1124.631 1.541" />
<path d="M 1124.170 12.909 L 1125.430 398.375" />
<path d="M 1125.430 398.375 L 1124.644 12.909" />
<path d="M 558.037 4096.000 L 179.704 169.079" />
<path d="M 148.159 3907.322 L 558.037 4096.000" />
<path d="M 89.646 3857.434 L 148.159 3907.322" />
<path d="M 41.946 3791.884 L 89.646 3857.434" />
<path d="M 10.813 3718.578 L 41.946 3791.884" />
<path d="M 0.000 3646.359 L 10.813 3718.578" />
<path d="M 2.730 410.823 L 0.000 3646.359" />
<path d="M 24.076 337.047 L 2.730 410.823" />
<path d="M 64.193 266.752 L 24.076 337.047" />
<path d="M 118.242 208.417 L 64.193 266.752" />
<path d="M 179.704 169.079 L 118.242 208.417" />
<path d="M 148.159 3907.322 L 179.704 169.079" />
<path d="M 41.946 3791.884 L 148.159 3907.322" />
<path d="M 0.000 3646.359 L 41.946 3791.884" />
<path d="M 24.076 337.047 L 0.000 3646.359" />
<path d="M 118.242 208.417 L 24.076 337.047" />
<path d="M 148.159 3907.322 L 118.242 208.417" />
<path d="M 0.000 3646.359 L 148.159 3907.322" />
<path d="M 118.242 208.417 L 0.000 3646.359" />
<path d="M 1115.116 2786.100 L 1120.444 2386.281" />
<path d="M 1114.975 2773.136 L 1115.116 2786.100" />
<path d="M 1120.444 2386.281 L 1114.975 2773.136" />
<path d="M 923.068 163.594 L 558.037 4084.918" />
<path d="M 984.355 202.931 L 923.068 163.594" />
<path d="M 1038.250 261.264 L 984.355 202.931" />
<path d="M 1078.252 331.558 L 1038.250 261.264" />
<path d="M 1099.536 405.334 L 1078.252 331.558" />
<path d="M 1102.260 3640.870 L 1099.536 405.334" />
<path d="M 1091.478 3713.089 L 1102.260 3640.870" />
<path d="M 1060.432 3786.392 L 1091.478 3713.089" />
<path d="M 1012.868 3851.939 L 1060.432 3786.392" />
<path d="M 954.521 3901.823 L 1012.868 3851.939" />
<path d="M 558.037 4084.918 L 954.521 3901.823" />
<path d="M 984.355 202.931 L 558.037 4084.918" />
<path d="M 1078.252 331.558 L 984.355 202.931" />
<path d="M 1102.260 3640.870 L 1078.252 331.558" />
<path d="M 1060.432 3786.392 L 1102.260 3640.870" />
<path d="M 954.521 3901.823 L 1060.432 3786.392" />
<path d="M 984.355 202.931 L 954.521 3901.823" />
<path d="M 1102.260 3640.870 L 984.355 202.931" />
<path d="M 954.521 3901.823 L 1102.260 3640.870" />
  </g>
  <g stroke="#000" stroke-width="11" stroke-linecap="round" stroke-linejoin="round">
    <path d="M 1102.261 4096.000 L 1102.260 0.000" />
<path d="M 1102.260 0.000 L 1103.746 0.652" />
<path d="M 1103.747 4095.306 L 1102.261 4096.000" />
<path d="M 1103.746 0.652 L 1114.501 5.489" />
<path d="M 1114.501 5.489 L 1114.502 4090.407" />
<path d="M 1114.502 4090.407 L 1103.747 4095.306" />
<path d="M 1124.170 4084.918 L 1123.696 4084.918" />
<path d="M 1123.696 4084.918 L 1123.697 0.000" />
<path d="M 1123.697 0.000 L 1124.170 0.000" />
<path d="M 1124.170 0.000 L 1124.170 4084.918" />
<path d="M 1124.983 714.288 L 1124.170 714.288" />
<path d="M 1124.170 714.288 L 1124.283 689.414" />
<path d="M 1125.096 689.414 L 1124.983 714.288" />
<path d="M 1124.283 689.414 L 1124.385 659.546" />
<path d="M 1125.198 659.546 L 1125.096 689.414" />
<path d="M 1124.385 659.546 L 1124.474 625.592" />
<path d="M 1125.287 625.592 L 1125.198 659.546" />
<path d="M 1124.474 625.592 L 1124.548 588.584" />
<path d="M 1125.360 588.583 L 1125.287 625.592" />
<path d="M 1124.548 588.584 L 1124.603 549.645" />
<path d="M 1125.415 549.645 L 1125.360 588.583" />
<path d="M 1124.603 549.645 L 1124.638 509.960" />
<path d="M 1125.451 509.959 L 1125.415 549.645" />
<path d="M 1124.638 509.960 L 1124.652 470.734" />
<path d="M 1125.465 470.733 L 1125.451 509.959" />
<path d="M 1124.652 470.734 L 1124.646 433.158" />
<path d="M 1125.458 433.157 L 1125.465 470.733" />
<path d="M 1124.646 433.158 L 1124.618 398.375" />
<path d="M 1125.430 398.375 L 1125.458 433.157" />
<path d="M 1120.444 2386.281 L 1120.941 2351.483" />
<path d="M 1121.754 2351.495 L 1121.257 2386.294" />
<path d="M 1120.941 2351.483 L 1121.408 2313.874" />
<path d="M 1122.220 2313.885 L 1121.754 2351.495" />
<path d="M 1121.408 2313.874 L 1121.829 2274.596" />
<path d="M 1122.642 2274.607 L 1122.220 2313.885" />
<path d="M 1121.829 2274.596 L 1122.193 2234.844" />
<path d="M 1123.006 2234.855 L 1122.642 2274.607" />
<path d="M 1122.193 2234.844 L 1122.488 2195.826" />
<path d="M 1123.301 2195.836 L 1123.006 2234.855" />
<path d="M 1122.488 2195.826 L 1122.706 2158.726" />
<path d="M 1123.518 2158.736 L 1123.301 2195.836" />
<path d="M 1122.706 2158.726 L 1122.839 2124.673" />
<path d="M 1123.651 2124.682 L 1123.518 2158.736" />
<path d="M 1122.839 2124.673 L 1122.884 2094.700" />
<path d="M 1123.696 2094.709 L 1123.651 2124.682" />
<path d="M 1122.884 2094.700 L 1122.839 2069.719" />
<path d="M 1123.651 2069.728 L 1123.696 2094.709" />
<path d="M 1115.314 0.009 L 1123.651 2069.728" />
<path d="M 1122.839 2069.719 L 1114.501 0.000" />
<path d="M 1114.501 0.000 L 1115.314 0.009" />
<path d="M 1124.631 1.541 L 1124.968 0.000" />
<path d="M 1124.968 0.000 L 1125.430 398.375" />
<path d="M 1124.618 398.375 L 1124.170 12.909" />
<path d="M 1124.644 12.909 L 1124.631 1.541" />
<path d="M 1124.170 12.909 L 1124.644 12.909" />
<path d="M 179.704 169.079 L 558.037 0.000" />
<path d="M 558.037 0.000 L 558.037 4096.000" />
<path d="M 558.037 4096.000 L 179.293 3924.417" />
<path d="M 179.293 3924.417 L 148.159 3907.322" />
<path d="M 148.159 3907.322 L 117.971 3884.766" />
<path d="M 117.971 3884.766 L 89.646 3857.434" />
<path d="M 89.646 3857.434 L 64.046 3826.156" />
<path d="M 64.046 3826.156 L 41.946 3791.884" />
<path d="M 41.946 3791.884 L 24.021 3755.657" />
<path d="M 24.021 3755.657 L 10.813 3718.578" />
<path d="M 10.813 3718.578 L 2.724 3681.772" />
<path d="M 2.724 3681.772 L 0.000 3646.359" />
<path d="M 0.000 3646.359 L 0.000 446.223" />
<path d="M 0.000 446.223 L 2.730 410.823" />
<path d="M 2.730 410.823 L 10.838 374.059" />
<path d="M 10.838 374.059 L 24.076 337.047" />
<path d="M 24.076 337.047 L 42.043 300.912" />
<path d="M 42.043 300.912 L 64.193 266.752" />
<path d="M 64.193 266.752 L 89.852 235.605" />
<path d="M 89.852 235.605 L 118.242 208.417" />
<path d="M 118.242 208.417 L 148.499 186.015" />
<path d="M 148.499 186.015 L 179.704 169.079" />
<path d="M 1121.257 2386.294 L 1115.116 2786.100" />
<path d="M 1115.116 2786.100 L 1114.800 2784.530" />
<path d="M 1114.800 2784.530 L 1114.975 2773.136" />
<path d="M 1114.975 2773.136 L 1114.501 2773.131" />
<path d="M 1114.501 2773.131 L 1120.444 2386.281" />
<path d="M 558.037 4084.918 L 558.037 0.000" />
<path d="M 558.037 0.000 L 923.068 163.594" />
<path d="M 923.068 163.594 L 954.184 180.529" />
<path d="M 954.184 180.529 L 984.355 202.931" />
<path d="M 984.355 202.931 L 1012.663 230.118" />
<path d="M 1012.663 230.118 L 1038.250 261.264" />
<path d="M 1038.250 261.264 L 1060.336 295.424" />
<path d="M 1060.336 295.424 L 1078.252 331.558" />
<path d="M 1078.252 331.558 L 1091.452 368.570" />
<path d="M 1091.452 368.570 L 1099.536 405.334" />
<path d="M 1099.536 405.334 L 1102.259 440.734" />
<path d="M 1102.259 440.734 L 1102.260 3640.870" />
<path d="M 1102.260 3640.870 L 1099.544 3676.283" />
<path d="M 1099.544 3676.283 L 1091.478 3713.089" />
<path d="M 1091.478 3713.089 L 1078.307 3750.167" />
<path d="M 1078.307 3750.167 L 1060.432 3786.392" />
<path d="M 1060.432 3786.392 L 1038.396 3820.663" />
<path d="M 1038.396 3820.663 L 1012.868 3851.939" />
<path d="M 1012.868 3851.939 L 984.623 3879.269" />
<path d="M 984.623 3879.269 L 954.521 3901.823" />
<path d="M 954.521 3901.823 L 923.476 3918.916" />
<path d="M 923.476 3918.916 L 558.037 4084.918" />
  </g>
  <g stroke="#fff" stroke-width="4" stroke-linecap="round" stroke-linejoin="round">
    <path d="M 1102.261 4096.000 L 1102.260 0.000" />
<path d="M 1102.260 0.000 L 1103.746 0.652" />
<path d="M 1103.747 4095.306 L 1102.261 4096.000" />
<path d="M 1103.746 0.652 L 1114.501 5.489" />
<path d="M 1114.501 5.489 L 1114.502 4090.407" />
<path d="M 1114.502 4090.407 L 1103.747 4095.306" />
<path d="M 1124.170 4084.918 L 1123.696 4084.918" />
<path d="M 1123.696 4084.918 L 1123.697 0.000" />
<path d="M 1123.697 0.000 L 1124.170 0.000" />
<path d="M 1124.170 0.000 L 1124.170 4084.918" />
<path d="M 1124.983 714.288 L 1124.170 714.288" />
<path d="M 1124.170 714.288 L 1124.283 689.414" />
<path d="M 1125.096 689.414 L 1124.983 714.288" />
<path d="M 1124.283 689.414 L 1124.385 659.546" />
<path d="M 1125.198 659.546 L 1125.096 689.414" />
<path d="M 1124.385 659.546 L 1124.474 625.592" />
<path d="M 1125.287 625.592 L 1125.198 659.546" />
<path d="M 1124.474 625.592 L 1124.548 588.584" />
<path d="M 1125.360 588.583 L 1125.287 625.592" />
<path d="M 1124.548 588.584 L 1124.603 549.645" />
<path d="M 1125.415 549.645 L 1125.360 588.583" />
<path d="M 1124.603 549.645 L 1124.638 509.960" />
<path d="M 1125.451 509.959 L 1125.415 549.645" />
<path d="M 1124.638 509.960 L 1124.652 470.734" />
<path d="M 1125.465 470.733 L 1125.451 509.959" />
<path d="M 1124.652 470.734 L 1124.646 433.158" />
<path d="M 1125.458 433.157 L 1125.465 470.733" />
<path d="M 1124.646 433.158 L 1124.618 398.375" />
<path d="M 1125.430 398.375 L 1125.458 433.157" />
<path d="M 1120.444 2386.281 L 1120.941 2351.483" />
<path d="M 1121.754 2351.495 L 1121.257 2386.294" />
<path d="M 1120.941 2351.483 L 1121.408 2313.874" />
<path d="M 1122.220 2313.885 L 1121.754 2351.495" />
<path d="M 1121.408 2313.874 L 1121.829 2274.596" />
<path d="M 1122.642 2274.607 L 1122.220 2313.885" />
<path d="M 1121.829 2274.596 L 1122.193 2234.844" />
<path d="M 1123.006 2234.855 L 1122.642 2274.607" />
<path d="M 1122.193 2234.844 L 1122.488 2195.826" />
<path d="M 1123.301 2195.836 L 1123.006 2234.855" />
<path d="M 1122.488 2195.826 L 1122.706 2158.726" />
<path d="M 1123.518 2158.736 L 1123.301 2195.836" />
<path d="M 1122.706 2158.726 L 1122.839 2124.673" />
<path d="M 1123.651 2124.682 L 1123.518 2158.736" />
<path d="M 1122.839 2124.673 L 1122.884 2094.700" />
<path d="M 1123.696 2094.709 L 1123.651 2124.682" />
<path d="M 1122.884 2094.700 L 1122.839 2069.719" />
<path d="M 1123.651 2069.728 L 1123.696 2094.709" />
<path d="M 1115.314 0.009 L 1123.651 2069.728" />
<path d="M 1122.839 2069.719 L 1114.501 0.000" />
<path d="M 1114.501 0.000 L 1115.314 0.009" />
<path d="M 1124.631 1.541 L 1124.968 0.000" />
<path d="M 1124.968 0.000 L 1125.430 398.375" />
<path d="M 1124.618 398.375 L 1124.170 12.909" />
<path d="M 1124.644 12.909 L 1124.631 1.541" />
<path d="M 1124.170 12.909 L 1124.644 12.909" />
<path d="M 179.704 169.079 L 558.037 0.000" />
<path d="M 558.037 0.000 L 558.037 4096.000" />
<path d="M 558.037 4096.000 L 179.293 3924.417" />
<path d="M 179.293 3924.417 L 148.159 3907.322" />
<path d="M 148.159 3907.322 L 117.971 3884.766" />
<path d="M 117.971 3884.766 L 89.646 3857.434" />
<path d="M 89.646 3857.434 L 64.046 3826.156" />
<path d="M 64.046 3826.156 L 41.946 3791.884" />
<path d="M 41.946 3791.884 L 24.021 3755.657" />
<path d="M 24.021 3755.657 L 10.813 3718.578" />
<path d="M 10.813 3718.578 L 2.724 3681.772" />
<path d="M 2.724 3681.772 L 0.000 3646.359" />
<path d="M 0.000 3646.359 L 0.000 446.223" />
<path d="M 0.000 446.223 L 2.730 410.823" />
<path d="M 2.730 410.823 L 10.838 374.059" />
<path d="M 10.838 374.059 L 24.076 337.047" />
<path d="M 24.076 337.047 L 42.043 300.912" />
<path d="M 42.043 300.912 L 64.193 266.752" />
<path d="M 64.193 266.752 L 89.852 235.605" />
<path d="M 89.852 235.605 L 118.242 208.417" />
<path d="M 118.242 208.417 L 148.499 186.015" />
<path d="M 148.499 186.015 L 179.704 169.079" />
<path d="M 1121.257 2386.294 L 1115.116 2786.100" />
<path d="M 1115.116 2786.100 L 1114.800 2784.530" />
<path d="M 1114.800 2784.530 L 1114.975 2773.136" />
<path d="M 1114.975 2773.136 L 1114.501 2773.131" />
<path d="M 1114.501 2773.131 L 1120.444 2386.281" />
<path d="M 558.037 4084.918 L 558.037 0.000" />
<path d="M 558.037 0.000 L 923.068 163.594" />
<path d="M 923.068 163.594 L 954.184 180.529" />
<path d="M 954.184 180.529 L 984.355 202.931" />
<path d="M 984.355 202.931 L 1012.663 230.118" />
<path d="M 1012.663 230.118 L 1038.250 261.264" />
<path d="M 1038.250 261.264 L 1060.336 295.424" />
<path d="M 1060.336 295.424 L 1078.252 331.558" />
<path d="M 1078.252 331.558 L 1091.452 368.570" />
<path d="M 1091.452 368.570 L 1099.536 405.334" />
<path d="M 1099.536 405.334 L 1102.259 440.734" />
<path d="M 1102.259 440.734 L 1102.260 3640.870" />
<path d="M 1102.260 3640.870 L 1099.544 3676.283" />
<path d="M 1099.544 3676.283 L 1091.478 3713.089" />
<path d="M 1091.478 3713.089 L 1078.307 3750.167" />
<path d="M 1078.307 3750.167 L 1060.432 3786.392" />
<path d="M 1060.432 3786.392 L 1038.396 3820.663" />
<path d="M 1038.396 3820.663 L 1012.868 3851.939" />
<path d="M 1012.868 3851.939 L 984.623 3879.269" />
<path d="M 984.623 3879.269 L 954.521 3901.823" />
<path d="M 954.521 3901.823 L 923.476 3918.916" />
<path d="M 923.476 3918.916 L 558.037 4084.918" />
  </g>
  <rect x="5" y="5" width="4086" height="4086" stroke="#000" stroke-width="10" />
  <rect x="7" y="7" width="4082" height="4082" stroke="#fff" stroke-width="3" />
</svg>
